<?xml version="1.0" encoding="UTF-8" standalone="no"?>
<!DOCTYPE svg PUBLIC "-//W3C//DTD SVG 1.1//EN" "http://www.w3.org/Graphics/SVG/1.1/DTD/svg11.dtd">
<svg version="1.1" xmlns="http://www.w3.org/2000/svg" xmlns:xlink="http://www.w3.org/1999/xlink" preserveAspectRatio="xMidYMid meet" viewBox="45.18052398360598 -11.77875332784621 406.805411660117 406.8054116601168" width="402.81" height="402.81"><defs><path d="M448.99 190.62C448.99 301.78 358.74 392.03 247.58 392.03C136.43 392.03 46.18 301.78 46.18 190.62C46.18 79.47 136.43 -10.78 247.58 -10.78C358.74 -10.78 448.99 79.47 448.99 190.62Z" id="aalRKI6rk"></path><path d="M248.73 64.35C251.78 64.35 254.26 66.82 254.26 69.88C254.26 112.83 254.26 220.22 254.26 392.03L242.34 392.03C242.34 220.22 242.34 112.83 242.34 69.88C242.34 66.82 244.82 64.35 247.87 64.35C249.15 64.35 247.45 64.35 248.73 64.35Z" id="a52COlpsFA"></path><path d="M250.08 64.36L250.28 64.38L250.47 64.41L250.66 64.45L250.85 64.49L251.04 64.54L251.22 64.6L251.4 64.66L251.58 64.73L251.75 64.81L251.92 64.89L252.09 64.98L252.25 65.08L252.41 65.18L252.56 65.29L252.71 65.4L252.86 65.52L253 65.65L253.13 65.78L253.26 65.91L253.39 66.05L253.51 66.2L253.62 66.35L253.73 66.5L253.83 66.66L253.93 66.82L254.02 66.99L254.1 67.16L254.18 67.33L254.25 67.51L254.32 67.69L254.37 67.87L254.42 68.06L254.46 68.25L254.5 68.44L254.53 68.64L254.55 68.83L254.56 69.03L254.56 69.23L254.56 387.14L254.56 387.34L254.55 387.54L254.53 387.74L254.5 387.93L254.46 388.13L254.42 388.31L254.37 388.5L254.32 388.68L254.25 388.87L254.18 389.04L254.1 389.22L254.02 389.39L253.93 389.55L253.83 389.71L253.73 389.87L253.62 390.03L253.51 390.18L253.39 390.32L253.26 390.46L253.13 390.6L253 390.73L252.86 390.85L252.71 390.97L252.56 391.08L252.41 391.19L252.25 391.29L252.09 391.39L251.92 391.48L251.75 391.57L251.58 391.64L251.4 391.71L251.22 391.78L251.04 391.83L250.85 391.88L250.66 391.93L250.47 391.96L250.28 391.99L250.08 392.01L249.88 392.02L249.68 392.03L248.3 392.03L248.3 64.35L249.68 64.35L249.88 64.35L250.08 64.36Z" id="aoBF6HPy3"></path><path d="M247.83 89.13C249.63 90.62 250.76 91.55 251.21 91.92C288.61 122.71 309.22 169.38 306.79 217.76C306.7 219.62 306.46 224.28 306.09 231.74C301.69 229.1 298.94 227.45 297.84 226.79C265.67 207.49 225.28 208.3 193.91 228.89C193.33 229.27 191.88 230.22 189.57 231.74C189.28 228.45 189.1 226.39 189.03 225.57C184.84 177.11 203.49 129.48 239.46 96.74C240.58 95.73 243.36 93.19 247.83 89.13Z" id="eXdtj5sX2"></path><path d="M189.49 231.74C189.44 230.98 189.42 230.5 189.4 230.31C186.69 183.75 202.93 138.07 234.43 103.68C236.21 101.74 240.64 96.89 247.75 89.13C235.45 90.4 227.76 91.19 224.68 91.51C155.74 98.61 98.06 146.95 79.02 213.6C78.33 216.02 76.6 222.06 73.84 231.74C77.39 229.96 79.62 228.85 80.51 228.4C113.45 211.93 152.3 212.29 184.93 229.36C185.54 229.68 187.06 230.47 189.49 231.74Z" id="bBiEFywYe"></path><path d="M305.84 231.74C305.89 230.98 305.92 230.5 305.93 230.31C308.64 183.75 292.4 138.07 260.9 103.68C259.13 101.74 254.69 96.89 247.58 89.13C259.89 90.4 267.57 91.19 270.65 91.51C339.59 98.61 397.28 146.95 416.31 213.6C417.01 216.02 418.73 222.06 421.5 231.74C417.94 229.96 415.71 228.85 414.82 228.4C381.88 211.93 343.03 212.29 310.4 229.36C309.79 229.68 308.27 230.47 305.84 231.74Z" id="c8vxMveGVm"></path></defs><g><g><use xlink:href="#aalRKI6rk" opacity="1" fill="#ffffff" fill-opacity="1"></use></g><g><use xlink:href="#a52COlpsFA" opacity="1" fill="#2cb8ea" fill-opacity="1"></use></g><g><use xlink:href="#aoBF6HPy3" opacity="1" fill="#199ece" fill-opacity="1"></use></g><g><use xlink:href="#eXdtj5sX2" opacity="1" fill="#2f7dff" fill-opacity="1"></use></g><g><use xlink:href="#bBiEFywYe" opacity="1" fill="#52a2f8" fill-opacity="1"></use></g><g><use xlink:href="#c8vxMveGVm" opacity="1" fill="#2c4ef9" fill-opacity="1"></use></g></g></svg>