<?xml version="1.0" encoding="UTF-8" standalone="no"?>
<!DOCTYPE svg PUBLIC "-//W3C//DTD SVG 1.1//EN" "http://www.w3.org/Graphics/SVG/1.1/DTD/svg11.dtd">
<svg version="1.1" xmlns="http://www.w3.org/2000/svg" xmlns:xlink="http://www.w3.org/1999/xlink" preserveAspectRatio="xMidYMid meet" viewBox="143.250137894099 149.45071711265376 347.72123868604035 327.80926168715104" width="466" height="439"><defs><path d="M322.54 155.92C322.54 198.36 322.54 304.48 322.54 474.26C321.36 474.26 311.94 474.26 310.76 474.26C310.76 304.48 310.76 198.36 310.76 155.92C310.76 152.89 313.21 150.45 316.22 150.45C317.49 150.45 315.81 150.45 317.07 150.45C320.09 150.45 322.54 152.89 322.54 155.92Z" id="a1nLrNAAK8"></path><path d="M319.52 177.7C356.48 208.12 376.85 254.24 374.45 302.05C374.36 303.89 374.12 308.49 373.76 315.86C369.41 313.25 366.69 311.62 365.6 310.97C333.81 291.9 293.9 292.7 262.9 313.05C262.33 313.42 260.9 314.36 258.61 315.86C258.33 312.61 258.15 310.58 258.08 309.77C253.94 261.88 272.37 214.81 307.91 182.46C309.02 181.46 311.77 178.95 316.18 174.94C317.96 176.41 319.08 177.33 319.52 177.7Z" id="alynMY97X"></path><path d="M258.45 314.45C255.77 268.44 271.82 223.3 302.94 189.32C304.7 187.4 309.08 182.61 316.11 174.94C303.95 176.19 296.35 176.97 293.31 177.29C225.18 184.31 168.18 232.07 149.37 297.94C148.69 300.33 146.98 306.3 144.25 315.86C147.76 314.1 149.96 313.01 150.84 312.56C183.39 296.29 221.78 296.64 254.03 313.51C254.63 313.83 256.13 314.61 258.53 315.86C258.48 315.11 258.46 314.64 258.45 314.45Z" id="g1IPaKWrj7"></path><path d="M373.77 314.45C376.44 268.44 360.4 223.3 329.27 189.32C327.52 187.4 323.13 182.61 316.11 174.94C328.27 176.19 335.86 176.97 338.9 177.29C407.03 184.31 464.04 232.07 482.84 297.94C483.53 300.33 485.23 306.3 487.97 315.86C484.45 314.1 482.25 313.01 481.37 312.56C448.82 296.29 410.43 296.64 378.18 313.51C377.58 313.83 376.08 314.61 373.68 315.86C373.73 315.11 373.76 314.64 373.77 314.45Z" id="aLwnrUzxa"></path></defs><g><g><use xlink:href="#a1nLrNAAK8" opacity="1" fill="#000000" fill-opacity="1"></use><g><use xlink:href="#a1nLrNAAK8" opacity="1" fill-opacity="0" stroke="#000000" stroke-width="1" stroke-opacity="0"></use></g></g><g><use xlink:href="#alynMY97X" opacity="1" fill="#000000" fill-opacity="1"></use><g><use xlink:href="#alynMY97X" opacity="1" fill-opacity="0" stroke="#000000" stroke-width="1" stroke-opacity="0"></use></g></g><g><use xlink:href="#g1IPaKWrj7" opacity="1" fill="#000000" fill-opacity="1"></use><g><use xlink:href="#g1IPaKWrj7" opacity="1" fill-opacity="0" stroke="#000000" stroke-width="1" stroke-opacity="0"></use></g></g><g><use xlink:href="#aLwnrUzxa" opacity="1" fill="#000000" fill-opacity="1"></use><g><use xlink:href="#aLwnrUzxa" opacity="1" fill-opacity="0" stroke="#000000" stroke-width="1" stroke-opacity="0"></use></g></g></g></svg>